<svg id="Layer_1" data-name="Layer 1" xmlns="http://www.w3.org/2000/svg" width="64" height="64" viewBox="0 0 64 64"><defs><style>.cls-1{fill:#1d1d1b;}</style></defs><title>star</title><path class="cls-1" d="M48.49,18.4c-3,.38-6.47,1.31-6.59,1.31s-.16-.65-.88-1.9S39.09,12.46,37,8.71,34.12,4,31.34,3.5,27.8,4,26.84,5s-3.25,5.65-5.38,10.06a18,18,0,0,0-2.09,7.19,49.37,49.37,0,0,0-10,.75c-3.79.78-6.47,2.65-6.47,5.53s.93,4.56,4.06,7.72S15.49,42,15.49,42s-.62,3.15-1.09,5.65A28.61,28.61,0,0,0,14,54.43c0,3-.19,4.63,2,6.07s3.38,1.18,6.85-1.16,9.81-9.44,9.81-9.44,8.84,6,11.94,7.53,5.21,1.28,6.9-.28,1.13-5.25.75-8.15-2.59-9-2.59-9.35a7.05,7.05,0,0,1,1.25-2.22c.78-1.12,4.44-6.62,5.5-9.37s2.53-5.88.53-8.41S51.52,18,48.49,18.4Zm7.16,5.35a4.7,4.7,0,0,1-.35,1.15A18.45,18.45,0,0,0,53.93,22c-.22,0-.78.28-.75.59s1.69,3.62,1.62,3.84-.5,1.72-.62,1.66S52,24.21,51.74,24.15s-.84.56-.69.78a44.4,44.4,0,0,1,2.54,4.41,14.09,14.09,0,0,1-1,1.81s-2.35-4.87-2.57-4.9-1,.43-.78.75a46,46,0,0,1,2.6,5.06c-.13.22-.57,1.28-.75,1.19s-1.88-3.75-2.19-3.94-.94.22-.78.65,2.43,4.07,2.34,4.35-.78,1.47-1,1.4-2.28-4.4-2.59-4.4-1.1.56-.75.94a29.77,29.77,0,0,1,2.59,4.28c-.06.25-.44,1.56-.75,1.31S45.3,33,44.93,33a.65.65,0,0,0-.59.69c.06.22,3.18,4.81,3.09,5s-.41,1.44-.06,1.91a34.37,34.37,0,0,1,2.5,7.84c.62,3.41,1.18,5.91.12,7.41s-3.25.34-6.87-1.69-9.41-6.37-10.22-6.5a1.5,1.5,0,0,0-1.47.34c-.34.32-1.13,1.47-1.69,2.07s-1,1-1,1-1.84-4.88-2.09-4.88-.91.47-.85.66,2.5,4.78,2.38,4.84-1.1,1.41-1.22,1.28-2.16-5.06-2.38-5.06-.75.6-.65.78,2.53,4.72,2.37,4.91-1,1.16-1.09,1-1.94-5-2.25-5-1,.72-.78.94,2.56,4.34,2.34,4.65-.87,1.16-1,.94-1.87-4.53-2.16-4.56-.71.4-.65.56,2.31,4.5,2.09,4.75-.9,1-1,1S20.55,54.4,20,54.18a.64.64,0,0,0-.84.47c0,.13,1.78,3.75,1.53,3.94s-.66.53-.78.34a25.52,25.52,0,0,0-1.53-3.15c-.25-.07-.78.34-.69.5s1.78,3,1.47,3a2.58,2.58,0,0,1-2.5-1.38c-.78-1.47-1-4.22-.72-7.37s1.91-7.63,2-8.6-.16-1.43-.75-1.71S12,38.34,9,35.4s-3.81-4.53-3.87-6.59,2.37-3.28,5.15-3.88S20,24,20.55,23.9s.75-2.53,1.63-5.22S27.24,5.56,29.84,5.37a5,5,0,0,1,3.34,1.38A14.36,14.36,0,0,1,35.3,9.59s-2.78-1.28-2.93-1.28-.5.9,0,1.19,3.37,1.25,3.37,1.25,1.16,2.62,1,2.53-3.65-2-3.84-1.75-.25.84,0,1,4.47,1.87,4.47,1.87a17.2,17.2,0,0,1,.84,2.19c-.16-.13-4.12-2.25-4.41-2s-.12,1,0,1,4.75,2,4.75,2,.6,1.12.35,1.09-4.25-1.31-4.38-1.22-.18.88.07.94,4.62,1.13,4.68,1.22S39.93,22,40.62,22s.65-.1,3.78-.85a37.36,37.36,0,0,1,8.47-1c1.65.07,2.09.57,2.47,1.16A4,4,0,0,1,55.65,23.75ZM28.87,45c-.19-.07-.83.46-.82.59s1.57,3.34,1.69,3.47.28,0,.47-.38S29.05,45.06,28.87,45Zm11.72,5.25c.09.31,5.65,4.21,5.81,4.28s1.12-.47,1-.91-6-4.39-6.19-4.31S40.49,49.93,40.59,50.25ZM52,39.28c-1.78-.22-.59.9.35,3.12a23.39,23.39,0,0,1,1.28,5.06c.09.41.62.25.94.1s.18-1.16-.35-3.31A17.76,17.76,0,0,0,52,39.28ZM12.15,53.81c.4-.81-.91-.66-.91-.66A4.76,4.76,0,0,0,10.15,57a9.35,9.35,0,0,0,1.28,4.5c.28.31.87-.07,1.09-.29s-.22-.09-.87-2.78A5.52,5.52,0,0,1,12.15,53.81ZM9.3,26.71c-.78,0-2.59,1-2.43,2.57a4.75,4.75,0,0,0,1.5,2.9c1.12.66,1.68-.56,1.47-.81s-.44-.09-.66-.12-.31-.07-.53-.66a3.12,3.12,0,0,1-.25-2c.25-.53,1-.5,1.5-.78S10.09,26.68,9.3,26.71Zm8-6.28c.91-.31,1.5-3,1.72-3.4s-.28-.6-.72-.6-1.5,2.53-1.84,2.91-2.32-.08-2.44,0c-.31.28-.4.94-.12,1.16A7.35,7.35,0,0,0,17.27,20.43ZM24.15,7.87A21.49,21.49,0,0,1,26.62,3.4c.75-1,.56-1.06.34-1a17.77,17.77,0,0,0-3.12,3.5c-1.38,1.91-2,3.09-1.63,3.56C22.77,10.28,23.62,9.31,24.15,7.87Zm34.81,9c-1.25-1.28-5.36-1.14-5.53-1.06a.8.8,0,0,0-.16,1.37c.41.25.94-.12,1.75-.12a5.66,5.66,0,0,1,3.91,2c1.44,1.59.56,2.75.44,2.87a.28.28,0,0,0,.15.47A1.63,1.63,0,0,0,61.12,21C61.27,19.81,60.21,18.12,59,16.84Z"/></svg>